Genre:Comedy
Language:English 
http://www.imdb.com/title/tt1645170/
Source:INSPiRAL/Unknown Thanks!
Subtitles:English
Encoder:Tony

Format : AVI
Format/Info : Audio Video Interleave
File size : 1.11 GiB
Duration : 1h 12mn
Overall bit rate : 2 179 Kbps

Video
ID : 0
Format : MPEG-4 Visual
Format profile : Advanced Simple@L5
Format settings, BVOP : 1
Format settings, QPel : No
Format settings, GMC : No warppoints
Format settings, Matrix : Default (H.263)
Codec ID : XVID
Codec ID/Hint : XviD
Duration : 1h 12mn
Bit rate : 1 975 Kbps
Width : 640 pixels
Height : 256 pixels
Display aspect ratio : 2.500
Frame rate : 29.970 fps
Color space : YUV
Chroma subsampling : 4:2:0
Bit depth : 8 bits
Scan type : Progressive
Compression mode : Lossy
Bits/(Pixel*Frame) : 0.402
Stream size : 1.00 GiB (91%)
Writing library : XviD 1.2.1 (UTC 2008-12-04)

Audio
ID : 1
Format : AC-3
Format/Info : Audio Coding 3
Mode extension : CM (complete main)
Format settings, Endianness : Big
Codec ID : 2000
Duration : 1h 12mn
Bit rate mode : Constant
Bit rate : 192 Kbps
Channel(s) : 2 channels
Channel positions : Front: L R
Sampling rate : 48.0 KHz
Bit depth : 16 bits
Compression mode : Lossy
Stream size : 100.0 MiB (9%)
Alignment : Aligned on interleaves
Interleave, duration : 33 ms (1.00 video frame)
Interleave, preload duration : 512 ms


Plot:
The heroic story of a dictator who risks his life to ensure that democracy would never come to the country he so lovingly oppressed.
 
http://img41.imageshack.us/img41/4226/vlcsnap2012060518h54m48.png 
http://img51.imageshack.us/img51/6194/vlcsnap2012060518h55m01.png 
http://img441.imageshack.us/img441/1938/vlcsnap2012060518h55m36.png 
http://img846.imageshack.us/img846/8207/vlcsnap2012060518h56m32.png